<svg width="474" height="761" viewBox="0 0 474 761" fill="none" xmlns="http://www.w3.org/2000/svg">
<path d="M301.29 758C301.29 758 454.42 725.57 460.727 638.926C467.034 552.283 229.129 621.74 324.369 440.926C419.61 260.113 505.687 255.637 460.727 142.926C415.767 30.2153 295.04 -28.9532 154.79 15.8005C14.5387 60.5541 1.33658 347.926 1.33658 347.926" stroke="#D0D5F6" stroke-width="2"/>
<path d="M259.3 758C259.3 758 379.425 729.519 384.372 653.425C389.32 577.332 202.693 638.331 277.406 479.535C352.118 320.738 419.641 316.808 384.372 217.821C349.103 118.835 254.398 66.8709 144.377 106.175C34.3565 145.479 24 397.859 24 397.859" stroke="#D0D5F6" stroke-width="2"/>
<path d="M223.065 760C223.065 760 313.97 735.159 317.714 668.792C321.458 602.425 180.227 655.627 236.766 517.128C293.305 378.629 344.404 375.201 317.714 288.867C291.024 202.532 219.355 157.211 136.096 191.491C52.8374 225.771 45 445.892 45 445.892" stroke="#D0D5F6" stroke-width="2"/>
</svg>
